<?xml version="1.0" encoding="UTF-8"?>
<svg version="1.1" xmlns="http://www.w3.org/2000/svg" width="1080" height="1080">
<path d="M0 0 C0.85601303 -0.00701431 1.71202606 -0.01402863 2.59397888 -0.02125549 C5.34005063 -0.03864996 8.08590644 -0.04510771 10.83203125 -0.046875 C12.24255768 -0.04788712 12.24255768 -0.04788712 13.68157959 -0.04891968 C27.8908692 -0.03272356 41.65571865 0.53151462 55.64453125 3.203125 C56.60343262 3.37473145 57.56233398 3.54633789 58.55029297 3.72314453 C73.31640582 6.38775996 87.49295027 10.23628934 101.64453125 15.203125 C102.9289209 15.64930176 102.9289209 15.64930176 104.23925781 16.10449219 C115.23931744 19.97186397 125.85274897 24.53558047 136.39453125 29.515625 C138.04835815 30.28942505 138.04835815 30.28942505 139.7355957 31.07885742 C140.75226318 31.56974854 141.76893066 32.06063965 142.81640625 32.56640625 C143.72487305 33.00251221 144.63333984 33.43861816 145.56933594 33.88793945 C147.64453125 35.203125 147.64453125 35.203125 148.64453125 38.203125 C148.11311523 38.44321289 147.58169922 38.68330078 147.03417969 38.93066406 C122.77538738 49.97438835 100.71432012 63.92603489 79.64453125 80.203125 C78.37029297 81.18539062 78.37029297 81.18539062 77.0703125 82.1875 C71.41121111 86.62949481 66.12408251 91.36445733 60.89453125 96.296875 C58.64453125 98.203125 58.64453125 98.203125 56.64453125 98.203125 C56.64453125 98.863125 56.64453125 99.523125 56.64453125 100.203125 C55.31640625 101.5078125 55.31640625 101.5078125 53.39453125 103.078125 C43.79233867 111.26973 35.4619101 120.31382298 27.64453125 130.203125 C25.52693461 132.83414225 23.39897868 135.45669431 21.26953125 138.078125 C20.71418701 138.76197266 20.15884277 139.44582031 19.58666992 140.15039062 C10.92512217 150.79600924 2.08283082 161.23502483 -7.35546875 171.203125 C-7.8256543 171.70199219 -8.29583984 172.20085937 -8.78027344 172.71484375 C-16.3725729 180.713231 -24.51242383 187.6253607 -33.35546875 194.203125 C-34.61617188 195.15638672 -34.61617188 195.15638672 -35.90234375 196.12890625 C-55.21462544 210.22427963 -75.16840783 216.54629379 -98.35546875 221.203125 C-116.79000071 224.76410248 -116.79000071 224.76410248 -134.35546875 231.203125 C-135.268125 231.63109375 -136.18078125 232.0590625 -137.12109375 232.5 C-154.24933701 241.21093514 -167.68043665 255.22188912 -179.35546875 270.203125 C-180.15597656 271.20988281 -180.95648438 272.21664063 -181.78125 273.25390625 C-234.00505431 339.41426831 -257.69176758 425.97880777 -248.10546875 509.515625 C-243.52320265 546.20792856 -233.06387649 580.79808197 -217.35546875 614.203125 C-217.04029297 614.88407227 -216.72511719 615.56501953 -216.40039062 616.26660156 C-207.93625377 634.46540986 -197.20691431 651.65568954 -184.77587891 667.39746094 C-183.36054235 669.1966753 -181.97087922 671.01325791 -180.5859375 672.8359375 C-173.82235599 681.67811835 -166.62430581 690.29288667 -158.51171875 697.94140625 C-157.35546875 699.203125 -157.35546875 699.203125 -157.35546875 701.203125 C-156.81019531 701.41839844 -156.26492188 701.63367188 -155.703125 701.85546875 C-152.5516765 703.66453653 -150.27724808 706.16045616 -147.79296875 708.765625 C-142.30400145 714.37150321 -136.55691602 719.38585953 -130.35546875 724.203125 C-129.7301123 724.69425781 -129.10475586 725.18539062 -128.46044922 725.69140625 C-72.82383861 769.34045795 -5.21845283 794.40228678 65.64453125 796.203125 C66.35641602 796.22503906 67.06830078 796.24695313 67.80175781 796.26953125 C105.7453108 797.32792882 143.85453605 790.66384388 179.64453125 778.203125 C180.44181641 777.92807129 181.23910156 777.65301758 182.06054688 777.36962891 C216.39934359 765.35647055 248.60286981 747.37212977 276.64453125 724.203125 C277.85689453 723.24986328 277.85689453 723.24986328 279.09375 722.27734375 C298.10320218 707.18912386 315.076923 689.58536005 329.64453125 670.203125 C330.08861328 669.62127441 330.53269531 669.03942383 330.99023438 668.43994141 C337.34998027 660.10135372 343.12745809 651.50513156 348.58569336 642.5480957 C353.94428176 633.83364215 353.94428176 633.83364215 356.64453125 632.203125 C359.87443106 632.25521354 362.88951462 633.01137655 366.01953125 633.765625 C367.89468168 634.17330242 369.7710386 634.5754619 371.6484375 634.97265625 C372.62441895 635.18100098 373.60040039 635.3893457 374.60595703 635.60400391 C379.69259938 636.60694624 384.81737353 637.28484301 389.95703125 637.953125 C390.92366699 638.08017822 391.89030273 638.20723145 392.88623047 638.33813477 C395.1384243 638.63128461 397.39106723 638.91993305 399.64453125 639.203125 C399.06524133 644.21054635 396.779724 648.02296659 394.33203125 652.328125 C393.88617676 653.11727295 393.44032227 653.9064209 392.98095703 654.71948242 C383.39436162 671.51842299 372.62401935 687.01908206 360.64453125 702.203125 C360.1841748 702.7909375 359.72381836 703.37875 359.24951172 703.984375 C354.39398301 710.16664785 349.18609396 715.98025896 343.80371094 721.703125 C341.55636819 724.09628196 339.42436314 726.48768553 337.4140625 729.0859375 C336.53814453 730.13394531 336.53814453 730.13394531 335.64453125 731.203125 C334.98453125 731.203125 334.32453125 731.203125 333.64453125 731.203125 C333.64453125 731.863125 333.64453125 732.523125 333.64453125 733.203125 C332.98453125 733.203125 332.32453125 733.203125 331.64453125 733.203125 C331.31453125 734.193125 330.98453125 735.183125 330.64453125 736.203125 C329.21875 737.640625 329.21875 737.640625 327.33203125 739.203125 C323.7967058 742.19213906 320.39777214 745.28743742 317.01953125 748.453125 C310.53387261 754.44478494 303.6962249 759.89528414 296.64453125 765.203125 C295.97180176 765.71101562 295.29907227 766.21890625 294.60595703 766.7421875 C274.4909619 781.83424206 253.12874445 793.99108756 230.64453125 805.203125 C229.88946289 805.58194824 229.13439453 805.96077148 228.35644531 806.35107422 C224.17442702 808.43372351 219.94251106 810.37415285 215.64453125 812.203125 C214.85320801 812.54118164 214.06188477 812.87923828 213.24658203 813.22753906 C197.41252028 819.90225033 181.2445412 824.81831073 164.64453125 829.203125 C163.23324951 829.58210937 163.23324951 829.58210937 161.79345703 829.96875 C146.92502026 833.9212235 131.88820444 836.22246991 116.64453125 838.203125 C115.78553223 838.32316895 114.9265332 838.44321289 114.04150391 838.56689453 C46.60432758 847.86045488 -25.3630842 833.17102208 -86.35546875 804.203125 C-87.23444824 803.79239746 -88.11342773 803.38166992 -89.01904297 802.95849609 C-107.59405215 794.23818076 -124.90962839 783.45046315 -141.35546875 771.203125 C-142.92361328 770.04683594 -142.92361328 770.04683594 -144.5234375 768.8671875 C-150.91577966 764.11951639 -157.21734064 759.27566702 -163.35546875 754.203125 C-163.87383301 753.77644531 -164.39219727 753.34976563 -164.92626953 752.91015625 C-180.36498812 740.11845903 -195.05123011 726.05881433 -207.35546875 710.203125 C-208.45061749 708.96591687 -209.55469543 707.73654975 -210.66796875 706.515625 C-225.8908173 689.22331087 -238.19775943 669.27489576 -249.35546875 649.203125 C-249.79713379 648.42227539 -250.23879883 647.64142578 -250.69384766 646.83691406 C-295.80246151 566.69871946 -306.11558827 466.61145141 -282.3671875 378.22265625 C-276.7947131 358.37859584 -270.13281808 338.87074115 -261.35546875 320.203125 C-260.92041016 319.2740332 -260.48535156 318.34494141 -260.03710938 317.38769531 C-252.46593818 301.38572065 -243.70807253 286.22271389 -234.35546875 271.203125 C-233.91605957 270.49478516 -233.47665039 269.78644531 -233.02392578 269.05664062 C-230.53430864 265.06072682 -227.97294733 261.11608041 -225.35546875 257.203125 C-224.87932129 256.49027344 -224.40317383 255.77742187 -223.91259766 255.04296875 C-213.7417587 239.87376232 -203.04131469 225.24326225 -191.35546875 211.203125 C-189.9171843 209.43292875 -188.47970172 207.66208071 -187.04296875 205.890625 C-179.7810993 197.01359369 -172.29137681 188.31530046 -164.66015625 179.75390625 C-163.15596518 178.0243301 -163.15596518 178.0243301 -161.35546875 175.203125 C-160.69546875 175.203125 -160.03546875 175.203125 -159.35546875 175.203125 C-159.04802734 174.40261719 -159.04802734 174.40261719 -158.734375 173.5859375 C-156.77714229 170.20375066 -154.09577225 167.77275012 -151.29296875 165.078125 C-147.35097935 161.50759134 -147.35097935 161.50759134 -144.35546875 157.203125 C-143.69546875 157.203125 -143.03546875 157.203125 -142.35546875 157.203125 C-141.95231445 156.31318848 -141.95231445 156.31318848 -141.54101562 155.40527344 C-140.35256143 153.19772467 -139.14804486 151.73769618 -137.38671875 149.96875 C-136.81566406 149.39511719 -136.24460937 148.82148438 -135.65625 148.23046875 C-135.06199219 147.64394531 -134.46773437 147.05742187 -133.85546875 146.453125 C-133.26121094 145.85113281 -132.66695312 145.24914062 -132.0546875 144.62890625 C-131.48363281 144.06042969 -130.91257812 143.49195313 -130.32421875 142.90625 C-129.80279297 142.38708008 -129.28136719 141.86791016 -128.74414062 141.33300781 C-127.35546875 140.203125 -127.35546875 140.203125 -125.35546875 140.203125 C-125.35546875 139.543125 -125.35546875 138.883125 -125.35546875 138.203125 C-123.48046875 136.078125 -123.48046875 136.078125 -121.35546875 134.203125 C-120.69546875 134.203125 -120.03546875 134.203125 -119.35546875 134.203125 C-119.02546875 133.213125 -118.69546875 132.223125 -118.35546875 131.203125 C-116.5078125 129.37890625 -116.5078125 129.37890625 -114.29296875 127.515625 C-113.55949219 126.89300781 -112.82601562 126.27039063 -112.0703125 125.62890625 C-111.50441406 125.15839844 -110.93851563 124.68789062 -110.35546875 124.203125 C-134.85617973 129.13316782 -161.71704154 153.25453751 -179.97875977 169.50927734 C-182.44005811 171.68068367 -184.20424936 173.15271854 -187.35546875 174.203125 C-187.35546875 174.863125 -187.35546875 175.523125 -187.35546875 176.203125 C-188.859375 177.6484375 -188.859375 177.6484375 -190.91796875 179.328125 C-194.67303488 182.49625362 -197.80812532 185.89742736 -200.91015625 189.69921875 C-201.38710938 190.19550781 -201.8640625 190.69179688 -202.35546875 191.203125 C-203.01546875 191.203125 -203.67546875 191.203125 -204.35546875 191.203125 C-204.58363281 191.75097656 -204.81179688 192.29882812 -205.046875 192.86328125 C-206.73949889 195.88979381 -208.91350949 198.12140309 -211.29296875 200.640625 C-214.46536064 203.99990301 -217.12539558 207.14777741 -219.35546875 211.203125 C-220.01546875 210.873125 -220.67546875 210.543125 -221.35546875 210.203125 C-211.8551022 155.6635783 -191.9214338 106.64766141 -153.35546875 66.203125 C-152.51757812 65.30078125 -151.6796875 64.3984375 -150.81640625 63.46875 C-143.07982509 55.38156848 -134.41195794 48.74077157 -125.35546875 42.203125 C-124.73687988 41.75582031 -124.11829102 41.30851562 -123.48095703 40.84765625 C-88.03759452 15.53792196 -43.71876367 0.24201493 0 0 Z " fill="#3FB93B" transform="translate(544.35546875,123.796875)"/>
<path d="M0 0 C2.1933324 8.01499658 4.30422547 16.04615122 6.25 24.125 C6.42499023 24.83454834 6.59998047 25.54409668 6.78027344 26.27514648 C7.65068956 29.9428909 8.07597775 33.24233461 8 37 C-21.57025965 44.45520677 -51.18413974 51.70981297 -80.84237671 58.80653381 C-85.15049153 59.83793903 -89.45808902 60.87149645 -93.76570892 61.90496635 C-114.58070657 66.89819387 -135.40014794 71.87173804 -156.23654175 76.77499199 C-158.93261695 77.40946548 -161.62855596 78.0445147 -164.32446289 78.67970276 C-171.77672476 80.43503477 -179.22943174 82.1882292 -186.68566132 83.92664051 C-189.67049376 84.62360201 -192.65427709 85.32497857 -195.63783264 86.0273838 C-197.62640307 86.49395784 -199.61633338 86.95472455 -201.60632324 87.41520691 C-216.46498669 90.78680389 -216.46498669 90.78680389 -230 97.5 C-230.86625 98.0671875 -231.7325 98.634375 -232.625 99.21875 C-235.06805523 100.95923373 -235.06805523 100.95923373 -237.1875 103.21875 C-239 105 -239 105 -241 105 C-241.26039063 105.55429687 -241.52078125 106.10859375 -241.7890625 106.6796875 C-243.63451319 110.21580915 -245.92182 113.45221736 -248.1484375 116.7578125 C-253.16216128 125.53711786 -255.13470561 134.58661426 -256.84985352 144.47167969 C-257.10753744 145.90964948 -257.36616615 147.34745024 -257.62565613 148.78509521 C-258.32581721 152.6794399 -259.01276925 156.57601011 -259.69734311 160.47312069 C-260.4291481 164.62549251 -261.17329662 168.7756528 -261.91600037 172.92608643 C-263.3315621 180.84730135 -264.73616421 188.77041873 -266.13682836 196.69427991 C-267.84005162 206.32655051 -269.5576379 215.95624937 -271.27539062 225.5859375 C-273.10539122 235.84500129 -274.93178323 246.1046504 -276.74014282 256.36755371 C-277.33185987 259.72359965 -277.92385874 263.07959574 -278.51611328 266.43554688 C-278.73331838 267.66662438 -278.73331838 267.66662438 -278.95491147 268.92257214 C-280.93383627 280.12630398 -282.97583384 291.31666347 -285.07163298 302.49909544 C-285.89029328 306.87937193 -286.69756265 311.26176359 -287.50453109 315.64420724 C-288.13298901 319.0500632 -288.77007213 322.45382807 -289.42755318 325.8542099 C-290.13579812 329.53382763 -290.81684622 333.21750156 -291.49194336 336.90332031 C-291.70731436 337.9806266 -291.92268536 339.05793289 -292.14458275 340.16788483 C-293.33892218 345.69472528 -293.33892218 345.69472528 -291.19721985 350.61352539 C-290.4721373 351.07106201 -289.74705475 351.52859863 -289 352 C-288.18450684 352.63373535 -288.18450684 352.63373535 -287.35253906 353.28027344 C-286.82885742 353.63637695 -286.30517578 353.99248047 -285.765625 354.359375 C-285.19199219 354.75253906 -284.61835937 355.14570312 -284.02734375 355.55078125 C-283.44082031 355.94652344 -282.85429688 356.34226562 -282.25 356.75 C-281.64800781 357.16121094 -281.04601562 357.57242187 -280.42578125 357.99609375 C-278.95313343 359.00123432 -277.47692498 360.00115478 -276 361 C-277.11158693 366.72030129 -280.69134114 370.34269898 -285.33984375 373.6796875 C-293.31635256 378.62045259 -300.36934077 381.56563246 -309.8125 381.4375 C-310.99271729 381.42614014 -310.99271729 381.42614014 -312.19677734 381.41455078 C-324.46490023 381.06936022 -333.34301876 376.08766414 -341.6875 367.3125 C-349.58172191 357.91891786 -351.99968631 346.9962357 -351 335 C-349.34676616 326.79996016 -346.63725488 320.21977122 -341 314 C-336.64872645 316.3889345 -332.83475023 318.82263552 -329 322 C-328.34 322.33 -327.68 322.66 -327 323 C-326.96335361 322.4143181 -326.92670723 321.82863621 -326.88895035 321.22520638 C-326.19331206 312.05743178 -324.55135185 303.07714291 -322.93652344 294.03857422 C-322.61900137 292.24196261 -322.30185789 290.44528405 -321.98506165 288.64854431 C-321.12777335 283.79409207 -320.26451127 278.94072111 -319.39960384 274.08762121 C-318.85797154 271.04680826 -318.31765912 268.00576379 -317.77780914 264.96463394 C-315.88997922 254.3300667 -313.99731342 243.69637327 -312.10009766 233.06347656 C-310.33908474 223.1931962 -308.58863321 213.3210828 -306.84314895 203.44804561 C-305.33824326 194.93854734 -303.82588221 186.43039549 -302.30785966 177.92322743 C-301.40397926 172.85707205 -300.50299245 167.79044644 -299.60955048 162.72243881 C-298.76772014 157.94870095 -297.91651472 153.17672371 -297.05849266 148.40587044 C-296.74765455 146.66880676 -296.43997825 144.93117336 -296.13595772 143.19290352 C-290.99229233 113.82169567 -281.27959468 86.89281241 -256.4375 68.4375 C-252.14413937 65.56188463 -247.6650694 63.14664855 -243.0625 60.8125 C-242.43077881 60.49144287 -241.79905762 60.17038574 -241.14819336 59.83959961 C-230.42588975 54.57701088 -219.18352018 51.66453908 -207.61328125 48.96484375 C-205.96213137 48.57420162 -204.31113503 48.1829101 -202.66027832 47.79103088 C-199.09187467 46.94513387 -195.52258487 46.10312527 -191.95254517 45.26416016 C-183.19078996 43.20474886 -174.43391998 41.12470059 -165.67645836 39.04712296 C-162.52074535 38.29869091 -159.36484762 37.55104129 -156.2089386 36.80343628 C-130.63239894 30.74107878 -105.08262002 24.56756264 -79.53176498 18.39802933 C-69.94545548 16.08338191 -60.35886206 13.7699108 -50.77226257 11.45646477 C-47.58388879 10.68687027 -44.39563142 9.91679521 -41.20739746 9.1466217 C-36.41448043 7.98896801 -31.62074323 6.83475498 -26.82672501 5.68167114 C-23.877881 4.97055073 -20.93031051 4.25429307 -17.98275757 3.5378418 C-16.06234861 3.07392468 -14.14190913 2.61013389 -12.22143555 2.14648438 C-11.33509084 1.92973305 -10.44874613 1.71298172 -9.53554249 1.48966217 C-8.71929244 1.29338982 -7.90304239 1.09711746 -7.0620575 0.89489746 C-6.34728084 0.7214254 -5.63250418 0.54795334 -4.89606762 0.36922455 C-3 0 -3 0 0 0 Z " fill="#F68711" transform="translate(910,280)"/>
<path d="M0 0 C1.64775801 0.556946 3.29621379 1.11183131 4.9453125 1.66479492 C8.32312233 2.80071671 11.69682362 3.94772405 15.06738281 5.10498047 C19.3256593 6.56573582 23.59294112 7.99689791 27.8671875 9.41015625 C33.48767147 11.27020331 39.10471037 13.14011804 44.71875 15.01953125 C53.88311251 18.08634324 63.05062222 21.1436864 72.21875 24.19921875 C72.94997448 24.44292143 73.68119896 24.68662411 74.43458176 24.93771172 C78.21342951 26.19710494 81.99229986 27.45643032 85.7711792 28.71572876 C92.59379282 30.98937921 99.41620381 33.26363752 106.23862839 35.53785515 C109.84039252 36.73847744 113.44216943 37.93906139 117.04394531 39.13964844 C118.39489752 39.58996563 119.74584967 40.04028301 121.09680176 40.49060059 C122.34360718 40.90620239 123.5904126 41.3218042 124.875 41.75 C153.9609375 51.4453125 153.9609375 51.4453125 157.37792969 52.59082031 C159.93704019 53.43909291 162.49867956 54.27077239 165.06738281 55.08886719 C165.76207672 55.31291229 166.45677063 55.5369574 167.17251587 55.76779175 C169.11681779 56.39432338 171.06347112 57.01354425 173.01025391 57.63232422 C175.875 58.75 175.875 58.75 176.875 60.75 C176.58625 61.6575 176.2975 62.565 176 63.5 C174.79666666 67.31308146 174.55873334 71.03403378 174.3046875 75.015625 C174.22202637 76.27665039 174.13936523 77.53767578 174.05419922 78.83691406 C173.99506348 79.79823242 173.93592773 80.75955078 173.875 81.75 C144.52180048 91.74520063 114.96292754 101.09836737 85.41230202 110.48821449 C74.03805803 114.10260046 62.66884174 117.73243132 51.30331421 121.37413216 C48.80572381 122.17434929 46.30803104 122.97424602 43.81030273 123.77403259 C42.1694331 124.29946745 40.52856396 124.82490385 38.88769531 125.3503418 C38.08357964 125.60783172 37.27946396 125.86532164 36.45098114 126.13061428 C32.47846195 127.40285834 28.50621982 128.67595564 24.5345459 129.95083618 C20.80917591 131.14663191 17.08310146 132.34020734 13.35651779 133.53221512 C11.99473545 133.96825869 10.63321515 134.40512169 9.27199173 134.84290695 C-19.81387819 144.19575142 -19.81387819 144.19575142 -32.125 138.75 C-41.06574411 133.5918784 -46.21254421 126.63573061 -48.96459961 116.72705078 C-49.66174234 113.45278434 -50.25658551 110.17610047 -50.8125 106.875 C-51.01166016 105.79992187 -51.21082031 104.72484375 -51.41601562 103.6171875 C-54.2970708 87.36992556 -55.4665374 71.14173507 -55.38574219 54.65795898 C-55.37495794 52.05233758 -55.38575936 49.44739862 -55.3984375 46.84179688 C-55.4058873 38.61334378 -55.16811689 30.4818151 -54.2421875 22.30078125 C-54.12753143 21.26634636 -54.12753143 21.26634636 -54.01055908 20.21101379 C-52.89481816 11.45845641 -49.08978229 5.70582042 -42.2734375 0.2578125 C-28.59335186 -9.34312033 -14.50629049 -5.06132971 0 0 Z " fill="#26963B" transform="translate(375.125,544.25)"/>
<path d="M0 0 C1.85543604 2.42280078 3.59528411 4.85625245 5.3125 7.375 C6.40268393 8.94728198 7.4938621 10.51887496 8.5859375 12.08984375 C9.15022461 12.90437012 9.71451172 13.71889648 10.29589844 14.55810547 C12.96543318 18.38341872 15.69909018 22.16132886 18.4375 25.9375 C18.97673096 26.68241699 19.51596191 27.42733398 20.0715332 28.19482422 C21.16700292 29.70807298 22.26278743 31.22109391 23.35888672 32.73388672 C26.07648169 36.48644794 28.78797486 40.2434125 31.5 44 C34.78388543 48.54779486 38.06845048 53.09509379 41.35546875 57.640625 C46.65467424 64.97036718 51.94304209 72.30713176 57.19213867 79.67285156 C60.60863252 84.46267563 64.05238955 89.23253869 67.5 94 C71.34888977 99.32236265 75.18813421 104.65105378 79 110 C82.75200925 115.2636706 86.52686353 120.51046373 90.3125 125.75 C90.85817627 126.50579346 91.40385254 127.26158691 91.96606445 128.0402832 C94.75867942 131.90625714 97.55756793 135.76745807 100.3671875 139.62109375 C105.5583172 146.75035655 110.71538555 153.90320093 115.6875 161.1875 C116.09766357 161.77490967 116.50782715 162.36231934 116.93041992 162.9675293 C121.98503863 170.48202649 122.91079497 178.16191545 122 187 C120.3946843 193.26506993 118.02609404 197.8115883 113 202 C112.0925 202.845625 111.185 203.69125 110.25 204.5625 C106.50770219 207.58440548 102.44148745 209.22581887 98 211 C96.824375 211.50273438 95.64875 212.00546875 94.4375 212.5234375 C69.41871848 222.99078744 21.87732998 239.88198137 -5.1875 229.4375 C-7.1484375 228.32421875 -7.1484375 228.32421875 -9 227 C-9.71414063 226.49082031 -10.42828125 225.98164062 -11.1640625 225.45703125 C-16.93277439 220.87352744 -19.70261242 215.89216273 -22 209 C-22.09546214 206.51812099 -22.13473134 204.06462481 -22.12698364 201.58277893 C-22.12854363 200.8209746 -22.13010362 200.05917027 -22.13171089 199.27428097 C-22.13570938 196.71351482 -22.13253555 194.15280764 -22.12939453 191.59204102 C-22.13074918 189.75887517 -22.13252948 187.92570961 -22.13470459 186.09254456 C-22.1392742 181.10446549 -22.13749052 176.11640705 -22.1343255 171.12832761 C-22.13179605 165.90488202 -22.1341414 160.68143821 -22.13571167 155.45799255 C-22.1375331 146.67552371 -22.13512927 137.89306327 -22.13037109 129.1105957 C-22.12494376 118.97641274 -22.12668009 108.84224994 -22.1321975 98.70806748 C-22.13674761 90.00045874 -22.13736944 81.29285605 -22.13475883 72.5852465 C-22.13320452 67.38812711 -22.13297872 62.19101717 -22.13629532 56.99389839 C-22.13920107 52.0978839 -22.13714897 47.20189514 -22.13140106 42.30588341 C-22.13008724 40.5161455 -22.13044394 38.72640541 -22.13266373 36.9366684 C-22.14320073 27.57153051 -22.0127936 18.32437382 -21 9 C-20.15042725 8.65702881 -19.30085449 8.31405762 -18.42553711 7.96069336 C-11.48739504 5.16247876 -11.48739504 5.16247876 -4.875 1.6875 C-2 0 -2 0 0 0 Z " fill="#ED0D63" transform="translate(631,662)"/>
<path d="M0 0 C1.2734375 2.0390625 1.2734375 2.0390625 2.375 4.625 C4.35747592 8.9678613 6.52383583 12.03884763 9.9609375 15.33203125 C11 17 11 17 10.73388672 19.35351562 C9.96270823 22.13447864 9.03419325 23.72833004 7.296875 26.01171875 C6.73532715 26.76026123 6.1737793 27.50880371 5.59521484 28.2800293 C4.6818335 29.47172729 4.6818335 29.47172729 3.75 30.6875 C2.46525636 32.39516451 1.18142311 34.10351427 -0.1015625 35.8125 C-0.75415039 36.67746094 -1.40673828 37.54242187 -2.07910156 38.43359375 C-4.98240435 42.31253616 -7.80352301 46.24886599 -10.625 50.1875 C-15.16862487 56.50730653 -19.79683606 62.75543924 -24.48535156 68.96826172 C-28.73730414 74.61664797 -32.87814346 80.34096874 -37.00610352 86.08032227 C-42.68556315 93.96991123 -48.45674297 101.79068749 -54.23388672 109.60888672 C-57.15956103 113.56991162 -60.07950306 117.53515717 -63 121.5 C-64.1666389 123.08335379 -65.33330558 124.66668712 -66.5 126.25 C-67.0775 127.03375 -67.655 127.8175 -68.25 128.625 C-70 131 -71.75 133.375 -73.5 135.75 C-74.0779834 136.5347168 -74.6559668 137.31943359 -75.25146484 138.12792969 C-76.41204866 139.70238269 -77.5738226 141.27595915 -78.73681641 142.84863281 C-81.75717749 146.93625032 -84.7519694 151.03954973 -87.7109375 155.171875 C-88.63132812 156.44708008 -88.63132812 156.44708008 -89.5703125 157.74804688 C-90.73180668 159.35830017 -91.88606624 160.97380962 -93.03125 162.59570312 C-99.43323283 171.4332229 -106.2002479 177.46597995 -117 180 C-125.91346264 181.17422861 -133.44577113 179.17915128 -140.625 173.8125 C-152.54590803 163.70846442 -162.7051231 151.5076434 -172 139 C-172.52335937 138.30116699 -173.04671875 137.60233398 -173.5859375 136.88232422 C-202.59842934 98.00320149 -202.59842934 98.00320149 -201 78 C-199.30718326 70.69845311 -195.5845961 64.94178176 -190 60 C-182.69540675 55.46683855 -174.50649642 53.0100065 -166.35546875 50.47265625 C-165.01167652 50.04760357 -163.66812641 49.6217848 -162.32479858 49.19526672 C-159.45102765 48.28452127 -156.57570602 47.37892569 -153.69900513 46.47747803 C-149.11634702 45.04142025 -144.53729071 43.59411186 -139.95874023 42.14501953 C-135.1701153 40.63006238 -130.38121482 39.11600088 -125.59101868 37.60601807 C-110.77559462 32.93581119 -95.97620598 28.21606247 -81.17919159 23.48790932 C-76.07128987 21.85603449 -70.96226894 20.22770338 -65.85253906 18.6015625 C-64.79600002 18.26529374 -64.79600002 18.26529374 -63.71811676 17.92223167 C-62.31654414 17.47615129 -60.91497097 17.03007265 -59.51339722 16.58399582 C-58.83092926 16.36678501 -58.1484613 16.1495742 -57.4453125 15.92578125 C-56.7706192 15.71105793 -56.0959259 15.49633461 -55.40078735 15.27510452 C-47.69373563 12.82175446 -39.99065981 10.35669187 -32.29573059 7.86553955 C-28.65415636 6.68725762 -25.01038711 5.51587523 -21.36618042 4.34576416 C-19.77180646 3.83156889 -18.17859896 3.31373974 -16.58670044 2.79193115 C-14.48638496 2.10349743 -12.38254708 1.42721323 -10.27734375 0.75390625 C-9.14546631 0.38595947 -8.01358887 0.0180127 -6.84741211 -0.36108398 C-4.03027932 -0.99320578 -2.62479516 -1.14661505 0 0 Z " fill="#FBC107" transform="translate(553,639)"/>
<path d="M0 0 C0.90621094 0.33773437 1.81242188 0.67546875 2.74609375 1.0234375 C10.89923117 4.03668981 10.89923117 4.03668981 19.3125 6.1875 C20.529375 6.455625 21.74625 6.72375 23 7 C24.48910312 9.97820624 24.12058221 13.00843558 24.0957489 16.27246094 C24.09393091 17.03073842 24.09211291 17.7890159 24.09023982 18.57027149 C24.08282751 21.12501447 24.06813434 23.67966411 24.0534668 26.234375 C24.04659995 28.06078444 24.04015028 29.8871955 24.03408813 31.71360779 C24.0161241 36.68717289 23.99156531 41.66068489 23.96532798 46.63421249 C23.94386064 50.78634585 23.92518828 54.93849007 23.90639621 59.09063625 C23.86183042 68.89264652 23.81153699 78.69461671 23.75805664 88.49658203 C23.70306258 98.59950803 23.6590201 108.70244094 23.62020558 118.8054409 C23.58640787 127.48076486 23.54506511 136.15603169 23.49788028 144.83129311 C23.46982342 150.01158667 23.44475343 155.19185158 23.4272213 160.37219238 C23.41043699 165.25101634 23.38422082 170.12970178 23.35091019 175.00844002 C23.34028689 176.79416292 23.33295287 178.57990906 23.32924461 180.36565971 C23.29536355 195.1448584 23.15002344 206.84997656 12.1875 217.8125 C2.46701806 224.48341898 -6.38041455 225.57841372 -17.96777344 223.45654297 C-41.79815291 218.4658688 -64.63988731 210.30792962 -86.625 199.9375 C-87.81601318 199.38441162 -89.00702637 198.83132324 -90.23413086 198.26147461 C-100.05684026 193.47422347 -109.4653352 187.65451294 -113.39453125 176.9921875 C-115.93569996 168.6309227 -115.50215964 161.00977801 -112 153 C-109.28374503 148.45430389 -106.15643682 144.24327248 -103 140 C-101.9287228 138.53846703 -100.85846288 137.07618804 -99.7890625 135.61328125 C-96.81753318 131.55772854 -93.8288162 127.51516376 -90.83496094 123.47607422 C-87.86395805 119.46703866 -84.89949682 115.45319281 -81.9375 111.4375 C-81.35782471 110.65165527 -80.77814941 109.86581055 -80.1809082 109.05615234 C-76.25580706 103.72652639 -72.36784408 98.37128788 -68.5 93 C-62.31898737 84.41640731 -56.05214333 75.89798751 -49.76611328 67.39111328 C-46.84043897 63.43008838 -43.92049694 59.46484283 -41 55.5 C-39.8333611 53.91664621 -38.66669442 52.33331288 -37.5 50.75 C-36.9225 49.96625 -36.345 49.1825 -35.75 48.375 C-34 46 -32.25 43.625 -30.5 41.25 C-29.92185547 40.46536377 -29.34371094 39.68072754 -28.74804688 38.87231445 C-27.58793509 37.29790018 -26.42777924 35.72351837 -25.26757812 34.14916992 C-22.25024922 30.05464781 -19.23381688 25.95946939 -16.21875 21.86328125 C-15.28482422 20.59484375 -15.28482422 20.59484375 -14.33203125 19.30078125 C-13.15205609 17.69812842 -11.97234764 16.09527917 -10.79296875 14.4921875 C-7.22123956 9.6417963 -3.62236782 4.81269094 0 0 Z " fill="#F14523" transform="translate(574,665)"/>
<path d="M0 0 C6.31469306 1.90669114 12.06461047 4.32485757 17.875 7.4375 C18.6894458 7.87143066 19.5038916 8.30536133 20.34301758 8.75244141 C45.98005677 22.62533007 74.12359335 41.43581854 93 64 C93 64.66 93 65.32 93 66 C93.66 66 94.32 66 95 66 C96.81404051 68.08780119 98.51110297 70.1804541 100.1875 72.375 C100.68362793 73.01840332 101.17975586 73.66180664 101.69091797 74.32470703 C103.13650813 76.20966628 104.57039793 78.10289773 106 80 C106.64839844 80.8559375 107.29679687 81.711875 107.96484375 82.59375 C129.59326816 112.31374966 138.82048241 147.61981905 133.40600586 183.97973633 C128.80386779 212.38972534 116.01350421 243.15583365 97 265 C96.67 265 96.34 265 96 265 C95.89489753 259.90836921 95.91502889 254.84568152 96.29296875 249.765625 C97.81427962 228.68016764 96.19836629 207.51030212 91 187 C90.69884277 185.80963135 90.69884277 185.80963135 90.39160156 184.59521484 C83.75010091 159.16000702 72.67773971 135.12503947 57 114 C58.75653063 120.82390152 60.79694565 127.48708135 63.10839844 134.14257812 C76.31411182 172.25727183 82.85112116 210.80792139 84 251 C83.34 251 82.68 251 82 251 C80.81436542 249.48299575 79.70347878 247.90746545 78.625 246.3125 C74.78079017 240.85116869 70.49839317 236.04179767 65.86181641 231.24145508 C62 227.19890715 62 227.19890715 62 225 C61.34 225 60.68 225 60 225 C58.51953125 223.49609375 58.51953125 223.49609375 56.8125 221.4375 C54.51271298 218.72517387 52.18945535 216.15033357 49.625 213.6875 C45.8151307 209.94596917 42.52250402 205.83675037 39.18359375 201.67578125 C37.37206037 199.45592371 35.50757417 197.35068011 33.5625 195.25 C13.35599847 172.19026561 4.08401271 142.21685424 3 112 C2.95875 111.07703125 2.9175 110.1540625 2.875 109.203125 C2.50948517 93.39460866 4.76412311 77.68433575 7.625 62.1875 C11.74458135 39.51871649 10.51753317 20.92415115 0 0 Z M55 111 C56 113 56 113 56 113 Z " fill="#40B93B" transform="translate(152,195)"/>
<path d="M0 0 C5.29773783 0.47021342 8.99843547 3.3369991 13.3125 6.1875 C23.79681093 12.96436036 34.54202674 19.24566622 45.35791016 25.47558594 C47.6014737 26.77006115 49.8394564 28.07323374 52.07421875 29.3828125 C57.77214283 32.69631453 63.52665528 35.81905937 69.4296875 38.74609375 C70.12420013 39.09170853 70.81871277 39.4373233 71.53427124 39.79341125 C73.68851579 40.86429992 75.84408196 41.932485 78 43 C78.65432007 43.32456177 79.30864014 43.64912354 79.98278809 43.98352051 C100.0656488 53.938876 120.29696992 63.3964671 141 72 C142.75836182 72.73512817 142.75836182 72.73512817 144.55224609 73.48510742 C155.11604445 77.81599745 165.89240562 81.35372139 176.76416016 84.82543945 C202.19576299 92.97137747 202.19576299 92.97137747 209.3203125 105.28125 C212.73630195 112.63876574 213.36337087 120.59764294 211.375 128.4765625 C206.50325982 140.78640599 194.99164175 150.59448304 186 160 C185.16984375 160.87269531 184.3396875 161.74539063 183.484375 162.64453125 C160.69935273 186.04425735 160.69935273 186.04425735 146.6328125 187.30078125 C135.20813071 187.33894834 129.07642863 185.88119744 120.69140625 177.95703125 C115.72692822 172.50259022 111.70756381 166.39049927 107.57519531 160.296875 C104.97296873 156.50243178 102.26695633 152.78442632 99.5625 149.0625 C98.46991233 147.55348659 97.3774649 146.04437164 96.28515625 144.53515625 C95.74262207 143.78637207 95.20008789 143.03758789 94.64111328 142.26611328 C91.92351827 138.513552 89.21205527 134.75656581 86.5 131 C85.41669638 129.49997854 84.33336304 127.99997854 83.25 126.5 C81.08333333 123.5 78.91666667 120.5 76.75 117.5 C76.21366943 116.75741943 75.67733887 116.01483887 75.12475586 115.24975586 C74.04211746 113.7506555 72.9595978 112.25146938 71.87719727 110.75219727 C69.15920177 106.98771832 66.43911932 103.22478096 63.71484375 99.46484375 C57.9301375 91.47643988 52.1920321 83.45884181 46.51708984 75.39208984 C41.28892951 67.97053547 35.967477 60.61734946 30.64111328 53.26611328 C27.92351819 49.51355189 25.21211427 45.75652333 22.5 42 C21.42578697 40.5130167 20.35156821 39.02603754 19.27734375 37.5390625 C17.01752711 34.41029499 14.76005342 31.27985198 12.50390625 28.1484375 C11.63958984 26.94960938 11.63958984 26.94960938 10.7578125 25.7265625 C9.66735098 24.21398684 8.57746029 22.70099941 7.48828125 21.1875 C6.73804688 20.14722656 6.73804688 20.14722656 5.97265625 19.0859375 C5.48885498 18.41288574 5.00505371 17.73983398 4.5065918 17.04638672 C3.45148379 15.61324537 2.36972936 14.19951807 1.26879883 12.80126953 C0.71345459 12.09341309 0.15811035 11.38555664 -0.4140625 10.65625 C-0.92275879 10.02267578 -1.43145508 9.38910156 -1.95556641 8.73632812 C-3 7 -3 7 -2.4375 4.125 C-1.963125 3.42375 -1.48875 2.7225 -1 2 C-0.67 1.34 -0.34 0.68 0 0 Z " fill="#B2154E" transform="translate(642,648)"/>
<path d="M0 0 C5.82085329 3.88857003 9.4259168 8.37531794 13.45703125 14.015625 C14.70127771 15.7295626 15.94607878 17.44309769 17.19140625 19.15625 C17.81208984 20.01412109 18.43277344 20.87199219 19.07226562 21.75585938 C26.38659373 31.82971963 33.88272631 41.73363143 41.89453125 51.265625 C42.33684082 51.79285156 42.77915039 52.32007813 43.23486328 52.86328125 C50.90055784 61.9932691 58.71011997 70.97526125 66.703125 79.8203125 C68.64716161 81.98959399 70.55679475 84.18306096 72.45703125 86.390625 C75.57991806 89.99733934 78.93735739 93.31211214 82.390625 96.6015625 C83.89453125 98.265625 83.89453125 98.265625 83.89453125 100.265625 C84.55453125 100.265625 85.21453125 100.265625 85.89453125 100.265625 C87.33984375 101.734375 87.33984375 101.734375 89.01953125 103.765625 C94.49263646 110.19057459 100.43200807 115.92306595 106.828125 121.41796875 C109.10602603 123.45473092 111.24871713 125.59036575 113.39453125 127.765625 C116.68307653 131.09331963 120.05834749 134.21898941 123.609375 137.26171875 C125.95995998 139.32300097 128.24610547 141.44157377 130.53076172 143.57519531 C136.0770436 148.75474082 141.71440116 153.69480918 147.65234375 158.42578125 C149.52135886 159.9594156 151.22854763 161.51797551 152.89453125 163.265625 C151.89453125 165.265625 150.89453125 167.265625 149.89453125 169.265625 C139.40842145 166.65488071 129.22389783 163.12043061 118.98828125 159.68359375 C117.02203665 159.02607949 115.05568497 158.36888536 113.0892334 157.71199036 C107.90341923 155.97896396 102.71872305 154.24261932 97.53436279 152.50524902 C88.37445214 149.43586077 79.21307716 146.37085394 70.05078125 143.30859375 C69.04641085 142.97280556 68.04204044 142.63701736 67.00723457 142.29105377 C49.62081083 136.48086584 32.19970512 130.78173172 14.76345348 125.12311077 C13.92160661 124.849889 13.07975973 124.57666723 12.21240234 124.29516602 C10.98293743 123.89616073 10.98293743 123.89616073 9.72863483 123.48909473 C-0.2131983 120.26006114 -10.13170176 116.96213019 -20.04296875 113.640625 C-22.61962368 112.77921557 -25.19643171 111.91826525 -27.77325439 111.05735779 C-29.39115074 110.51635991 -31.00879897 109.97461925 -32.62615967 109.43202209 C-36.00156112 108.29980257 -39.37881885 107.17675157 -42.76464844 106.07592773 C-43.81942383 105.73247314 -44.87419922 105.38901855 -45.9609375 105.03515625 C-46.84031982 104.75260986 -47.71970215 104.47006348 -48.62573242 104.17895508 C-57.21350204 101.01592996 -63.07121459 96.54716325 -67.10546875 88.265625 C-71.98954304 76.12043647 -69.58713093 66.91621715 -64.64257812 55.30639648 C-42.40769553 4.47028089 -42.40769553 4.47028089 -25.890625 -2.07421875 C-17.42554035 -4.08066939 -7.82529038 -4.01623865 0 0 Z " fill="#80CC27" transform="translate(408.10546875,423.734375)"/>
<path d="M0 0 C0.85601303 -0.00701431 1.71202606 -0.01402863 2.59397888 -0.02125549 C5.34005063 -0.03864996 8.08590644 -0.04510771 10.83203125 -0.046875 C12.24255768 -0.04788712 12.24255768 -0.04788712 13.68157959 -0.04891968 C27.8908692 -0.03272356 41.65571865 0.53151462 55.64453125 3.203125 C56.60343262 3.37473145 57.56233398 3.54633789 58.55029297 3.72314453 C73.31496519 6.38749999 87.49601575 10.23041415 101.64453125 15.203125 C102.51142578 15.50589355 103.37832031 15.80866211 104.27148438 16.12060547 C114.91057013 19.88413225 125.19814495 24.24238251 135.39453125 29.078125 C136.90551392 29.79307129 136.90551392 29.79307129 138.44702148 30.52246094 C139.37329346 30.97137695 140.29956543 31.42029297 141.25390625 31.8828125 C142.07858398 32.28226074 142.90326172 32.68170898 143.75292969 33.09326172 C145.64453125 34.203125 145.64453125 34.203125 146.64453125 36.203125 C146.07275146 36.08702881 145.50097168 35.97093262 144.91186523 35.85131836 C132.85869132 33.420577 120.77628637 31.2063548 108.64453125 29.203125 C107.62343262 29.03071289 106.60233398 28.85830078 105.55029297 28.68066406 C27.53279399 16.08579344 -56.96125204 33.15903211 -121.35546875 79.203125 C-129.41885388 85.05874652 -136.91699403 91.40901467 -144.09570312 98.32080078 C-146.17141223 100.30234162 -148.00171703 102.03117948 -150.59765625 103.29296875 C-152.93437871 104.50287171 -153.24748266 105.85350469 -154.35546875 108.203125 C-155.66462671 109.60085178 -157.02506677 110.95133477 -158.41796875 112.265625 C-163.51025988 117.26061121 -167.96780623 122.58494815 -172.35546875 128.203125 C-172.80792969 128.7791748 -173.26039063 129.35522461 -173.7265625 129.94873047 C-192.09216498 153.44699624 -205.72566051 179.28874855 -218.35546875 206.203125 C-218.68546875 206.203125 -219.01546875 206.203125 -219.35546875 206.203125 C-219.67885068 199.27943486 -218.50309529 193.11764844 -216.91796875 186.390625 C-216.65137451 185.2577002 -216.38478027 184.12477539 -216.11010742 182.95751953 C-205.4150717 139.04712984 -185.21562619 100.20704135 -154.35546875 67.203125 C-153.48535156 66.26726562 -152.61523438 65.33140625 -151.71875 64.3671875 C-143.70827735 55.95145624 -134.7710447 48.97978661 -125.35546875 42.203125 C-124.73833008 41.75727051 -124.12119141 41.31141602 -123.48535156 40.85205078 C-88.04147334 15.53916576 -43.72110918 0.24202792 0 0 Z " fill="#7ECB28" transform="translate(544.35546875,123.796875)"/>
<path d="M0 0 C8.5159807 7.16566664 14.90482915 15.12128856 16.6875 26.3125 C17.67957408 39.48594271 15.07545968 49.98419303 6.6875 60.3125 C0.19961067 67.31049365 -8.6997958 71.91961071 -18.21875 72.5859375 C-30.68762708 72.97933329 -39.82535638 71.37759496 -49.6875 63.125 C-57.43854744 55.64810536 -62.4753349 46.82618161 -62.69311523 35.94311523 C-62.66235601 23.24490462 -60.37506651 13.74271627 -51.3125 4.3125 C-37.10661552 -8.24473251 -16.15842428 -11.37426337 0 0 Z " fill="#80CC27" transform="translate(872.3125,638.6875)"/>
<path d="M0 0 C6.59604062 1.94487283 12.44620347 4.57993729 18.4375 7.9375 C19.29859375 8.41622559 20.1596875 8.89495117 21.046875 9.38818359 C44.94439005 22.88083256 71.23902265 40.76916284 89 62 C89 62.66 89 63.32 89 64 C89.66 64 90.32 64 91 64 C92.81404051 66.08780119 94.51110297 68.1804541 96.1875 70.375 C96.68362793 71.01840332 97.17975586 71.66180664 97.69091797 72.32470703 C99.13650813 74.20966628 100.57039793 76.10289773 102 78 C102.64839844 78.8559375 103.29679687 79.711875 103.96484375 80.59375 C125.59326816 110.31374966 134.82048241 145.61981905 129.40600586 181.97973633 C124.88043939 209.91703239 112.60765592 237.81206735 95 260 C94.67 259.34 94.34 258.68 94 258 C94.97632119 255.31056864 96.01851991 252.69798967 97.125 250.0625 C106.32385269 227.21470029 110.52320576 202.59067069 110 178 C109.98324219 176.94425781 109.96648437 175.88851562 109.94921875 174.80078125 C107.39580968 115.48873639 70.44194987 62.55323916 28.3046875 23.42578125 C23.62197743 19.23972225 18.73629401 15.28796558 13.875 11.3125 C13.19373047 10.75344971 12.51246094 10.19439941 11.81054688 9.6184082 C8.78645585 7.16078213 5.77568196 4.7944797 2.5078125 2.66796875 C1.68023437 2.11753906 0.85265625 1.56710938 0 1 C0 0.67 0 0.34 0 0 Z " fill="#7CCB28" transform="translate(156,197)"/>
<path d="M0 0 C6.28890611 4.87419944 10.90965276 11.58222657 12.19238281 19.54833984 C13.24828292 30.59814878 11.31147883 39.69924615 4.25390625 48.4140625 C-2.27011165 55.30391318 -10.32740395 58.61480647 -19.74609375 58.9140625 C-29.6435061 58.76699842 -38.15063149 54.50189938 -45.12109375 47.6015625 C-51.83059671 39.26799893 -53.11837297 30.0729943 -52.12109375 19.6015625 C-49.97440553 10.91723288 -44.81516342 2.56186591 -37.21875 -2.36328125 C-24.82472647 -8.4795126 -11.40670402 -7.52044206 0 0 Z " fill="#FBC107" transform="translate(892.12109375,405.3984375)"/>
<path d="M0 0 C6.31151787 4.99454761 10.49144708 12.55124836 11.875 20.4375 C12.73406628 30.52762396 11.20681881 39.6440879 4.6640625 47.62109375 C-2.38237641 54.77522932 -11.19576322 58.44128996 -21.1875 58.8125 C-31.53123512 58.42400291 -38.77673948 53.88458462 -45.875 46.625 C-51.80979688 38.21737109 -54.11718006 29.67915527 -52.5625 19.4375 C-50.53004181 10.81987728 -45.58529878 3.26475215 -38.125 -1.5625 C-25.5372042 -8.3005456 -11.97729247 -7.99992742 0 0 Z " fill="#ED0D63" transform="translate(799.125,517.5625)"/>
<path d="M0 0 C7.78810809 5.56710916 13.01059534 12.52532438 15.30859375 21.8671875 C16.77820613 31.41966795 14.37007717 39.55185141 9.40234375 47.6796875 C7.66835814 49.79946417 6.28864759 50.66704419 3.76953125 51.67578125 C3.76953125 52.33578125 3.76953125 52.99578125 3.76953125 53.67578125 C-6.5701026 60.36964825 -16.34137632 61.45127882 -28.22265625 59.078125 C-36.37330492 56.3485464 -42.80540628 49.91690867 -46.73046875 42.36328125 C-50.28133883 33.63405896 -50.76066736 23.60625074 -47.265625 14.73046875 C-42.97424399 6.2124823 -36.45866694 -0.13152657 -27.35546875 -3.19921875 C-17.98145641 -5.60722192 -8.44642364 -5.01460177 0 0 Z " fill="#F14523" transform="translate(568.23046875,350.32421875)"/>
<path d="M0 0 C0.86625 0.495 1.7325 0.99 2.625 1.5 C2.625 2.16 2.625 2.82 2.625 3.5 C3.22828125 3.73847656 3.8315625 3.97695313 4.453125 4.22265625 C8.6041155 6.6639762 10.10682636 11.09006706 11.625 15.5 C12.7474794 23.10791592 11.66563468 29.28082475 7.11328125 35.59765625 C2.76865707 40.97717968 -1.06387711 43.96263624 -8.1328125 44.84375 C-15.5506486 45.22317896 -21.35770093 43.96755064 -27.375 39.5 C-33.78811993 32.78646916 -34.74268817 27.17127177 -34.6484375 18.01953125 C-34.13665881 11.43220837 -31.75470645 7.52148973 -26.9375 3.125 C-19.74950717 -2.84553697 -8.52303755 -3.68516582 0 0 Z " fill="#FBC107" transform="translate(767.375,627.5)"/>
<path d="M0 0 C6.7860915 3.75531078 10.60096973 8.63494045 13.03515625 15.9375 C13.88205011 25.30886649 12.7275437 31.42458201 6.78515625 38.6875 C0.77957291 43.60115909 -4.30437295 45.65400429 -12.15625 45.31640625 C-19.60719312 44.31120252 -25.10100316 41.71457935 -29.80859375 35.81640625 C-33.87079308 29.21533234 -33.63134745 22.48266372 -32.96484375 14.9375 C-31.27564929 8.14864884 -26.75699705 4.48971902 -20.96484375 0.9375 C-20.35898437 0.56367188 -19.753125 0.18984375 -19.12890625 -0.1953125 C-13.28718701 -2.53621804 -5.8376629 -2.09202149 0 0 Z " fill="#FBC107" transform="translate(531.96484375,456.0625)"/>
<path d="M0 0 C5.25991111 4.00049577 8.69581785 8.46733984 10 15 C10.82069755 22.35160063 9.90035154 27.96798675 5.48828125 34.1015625 C1.14307047 39.47204773 -2.7003971 42.52493898 -9.79296875 43.30859375 C-17.52107534 43.63182254 -23.72961944 42.53055586 -29.78125 37.52734375 C-34.55613193 32.57691469 -36.82171412 26.4868613 -37.09375 19.640625 C-36.59591683 12.42204409 -33.97992108 6.51788143 -28.625 1.625 C-20.64486215 -4.57055006 -8.76853561 -5.22775273 0 0 Z " fill="#B2154E" transform="translate(705,440)"/>
<path d="M0 0 C5.09211997 4.48368652 8.57972629 9.18332829 9.3359375 16.05078125 C9.43160027 24.03862246 8.9036117 29.67143817 3.45703125 35.7109375 C-1.6769376 40.52770462 -6.93356539 42.65378964 -13.875 43.4375 C-21.03765322 43.08569974 -27.14646754 40.39224312 -32 35.125 C-37.10691613 28.57613108 -37.8933017 22.14148389 -37 14 C-35.26506015 7.3511287 -31.86453515 2.59476418 -26 -1 C-16.94646795 -5.23032294 -8.70744114 -5.0095695 0 0 Z " fill="#26953B" transform="translate(684,583)"/>
<path d="M0 0 C1.32 0 2.64 0 4 0 C8 10.66666667 12 21.33333333 16 32 C18.97 24.74 21.94 17.48 25 10 C29.95 11.485 29.95 11.485 35 13 C34.37392432 17.87647599 32.94289151 22.22270085 31.1640625 26.77734375 C30.88404388 27.50691788 30.60402527 28.236492 30.31552124 28.98817444 C29.42396145 31.30669162 28.5244532 33.62203531 27.625 35.9375 C27.02815588 37.48874387 26.43179709 39.04017457 25.8359375 40.59179688 C25.25824727 42.0913134 24.68013598 43.59066779 24.1015625 45.08984375 C23.83582428 45.77860092 23.57008606 46.46735809 23.29629517 47.17698669 C21.61917942 51.49236512 19.84530274 55.75373421 18 60 C14.91108186 58.96870791 14.08679618 58.1639805 12.53613281 55.234375 C11.87629395 53.50960937 11.87629395 53.50960937 11.203125 51.75 C10.9646283 51.13608398 10.72613159 50.52216797 10.48040771 49.88964844 C9.72377394 47.9311997 8.98718943 45.96583848 8.25 44 C7.73948765 42.67661732 7.22778193 41.35369433 6.71484375 40.03125 C3 30.36337912 3 30.36337912 3 28 C2.34 28 1.68 28 1 28 C0.89816406 28.65355469 0.79632813 29.30710937 0.69140625 29.98046875 C-0.2079296 33.90807673 -1.61632302 37.55780849 -3.0625 41.3125 C-3.34416016 42.05306641 -3.62582031 42.79363281 -3.91601562 43.55664062 C-4.60718575 45.37242655 -5.30311689 47.18639899 -6 49 C-12.625 48.25 -12.625 48.25 -16 46 C-14.78055292 39.75752098 -13.04036046 33.95219993 -10.7421875 28.02734375 C-10.43427277 27.21882462 -10.12635803 26.41030548 -9.80911255 25.57728577 C-8.83689228 23.02842078 -7.85611732 20.4829517 -6.875 17.9375 C-6.20906376 16.19618205 -5.54369392 14.45464739 -4.87890625 12.71289062 C-3.25913426 8.47272952 -1.63168856 4.23558889 0 0 Z " fill="#000000" transform="translate(456,949)"/>
<path d="M0 0 C22.81475876 -0.23137278 22.81475876 -0.23137278 28.6875 4.3125 C32.49430892 8.73662928 33.42764056 12.11627256 33.25 18.01171875 C32.67902406 22.55276177 30.72715308 25.32605324 27.4375 28.375 C25 30 25 30 23 30 C23.27263672 30.56509277 23.54527344 31.13018555 23.82617188 31.71240234 C25.05479852 34.26469044 26.27746388 36.81978936 27.5 39.375 C28.14388672 40.70917969 28.14388672 40.70917969 28.80078125 42.0703125 C29.20683594 42.92109375 29.61289062 43.771875 30.03125 44.6484375 C30.59682617 45.82672119 30.59682617 45.82672119 31.17382812 47.02880859 C32 49 32 49 32 51 C28.04 50.67 24.08 50.34 20 50 C19.46890625 48.71222656 18.9378125 47.42445312 18.390625 46.09765625 C17.67787214 44.4189357 16.96428718 42.74056828 16.25 41.0625 C15.90195312 40.21236328 15.55390625 39.36222656 15.1953125 38.48632812 C14.84726562 37.67744141 14.49921875 36.86855469 14.140625 36.03515625 C13.66931152 34.91185913 13.66931152 34.91185913 13.18847656 33.76586914 C12.12403733 31.80511563 12.12403733 31.80511563 9.86621094 31.24780273 C9.25036133 31.16602783 8.63451172 31.08425293 8 31 C8.01160156 31.79664063 8.02320313 32.59328125 8.03515625 33.4140625 C8.12478032 43.93848858 8.12478032 43.93848858 7 49 C3.7 48.67 0.4 48.34 -3 48 C-3.20069995 37.6639527 -2.4108601 27.53232679 -1.5 17.25 C-1.35500148 15.57035277 -1.21046693 13.89066542 -1.06640625 12.2109375 C-0.71627673 8.14014339 -0.35990074 4.06994138 0 0 Z M10 11 C9.67 14.3 9.34 17.6 9 21 C10.79093191 21.08086147 12.58289628 21.13912702 14.375 21.1875 C15.37273438 21.22230469 16.37046875 21.25710938 17.3984375 21.29296875 C18.68621094 21.14794922 18.68621094 21.14794922 20 21 C22.26646351 18.24443417 22.26646351 18.24443417 21.875 15.4375 C21.2181599 12.94354199 21.2181599 12.94354199 19.375 11.6875 C16.20198632 10.76899604 13.28355254 10.87370952 10 11 Z " fill="#000000" transform="translate(560,978)"/>
<path d="M0 0 C15.84 0 31.68 0 48 0 C48 3.63 48 7.26 48 11 C41.73 11 35.46 11 29 11 C29 15.29 29 19.58 29 24 C35.27 24 41.54 24 48 24 C48 27.63 48 31.26 48 35 C43.11108762 35.02503974 38.22221397 35.0430178 33.33325195 35.05493164 C31.67601876 35.05990735 30.01878983 35.06669032 28.36157227 35.07543945 C18.51501783 35.12605676 8.80824553 34.97325358 -1 34 C-1.125 27.375 -1.125 27.375 0 24 C6.27 24 12.54 24 19 24 C19 19.71 19 15.42 19 11 C12.73 11 6.46 11 0 11 C0 7.37 0 3.74 0 0 Z " fill="#000000" transform="translate(184,586)"/>
<path d="M0 0 C1.38671875 1.75 1.38671875 1.75 2.6875 4 C3.12449219 4.7425 3.56148438 5.485 4.01171875 6.25 C4.50091797 7.11625 4.50091797 7.11625 5 8 C0.00979615 12.18669645 -4.96731365 16.30618606 -10.29296875 20.05859375 C-11.02 20.57776367 -11.74703125 21.09693359 -12.49609375 21.63183594 C-13.94161946 22.65800459 -15.39859642 23.66825471 -16.8671875 24.66113281 C-21.03355249 27.53472123 -21.03355249 27.53472123 -22.55859375 32.2109375 C-22.16708652 35.08429015 -22.16708652 35.08429015 -20.375 37.4375 C-18.0772011 39.29061985 -18.0772011 39.29061985 -15.16430664 38.81811523 C-11.66677464 37.91384629 -9.80483093 36.71659754 -6.99609375 34.47265625 C-6.09052734 33.76302734 -5.18496094 33.05339844 -4.25195312 32.32226562 C-3.32318359 31.57654297 -2.39441406 30.83082031 -1.4375 30.0625 C0.41385247 28.58986234 2.26918829 27.12221534 4.12890625 25.66015625 C4.94431885 25.00668213 5.75973145 24.35320801 6.59985352 23.67993164 C9.00070264 21.9995082 11.24399096 20.96811215 14 20 C18.00390625 24.296875 18.00390625 24.296875 19 26 C18.73419291 28.69931083 18.23600203 29.77570901 16.25341797 31.65991211 C15.50721191 32.19366455 14.76100586 32.72741699 13.9921875 33.27734375 C13.16976562 33.87353516 12.34734375 34.46972656 11.5 35.08398438 C10.63375 35.69564453 9.7675 36.30730469 8.875 36.9375 C8.03195312 37.54529297 7.18890625 38.15308594 6.3203125 38.77929688 C4.66146835 39.97320101 2.99845487 41.16133633 1.33105469 42.34326172 C-0.14440172 43.39190512 -1.61341207 44.44972957 -3.07324219 45.52001953 C-9.33818214 50.10585011 -14.35952466 50.78812926 -22 50 C-27.24915088 47.42314411 -30.48726459 43.79856051 -33.25 38.6875 C-34.60007185 33.84974254 -34.54032177 29.72902967 -33.0625 25 C-27.76729832 17.29788847 -19.5261001 12.03275327 -12.125 6.5 C-11.28001953 5.86384766 -10.43503906 5.22769531 -9.56445312 4.57226562 C-8.36079102 3.68571289 -8.36079102 3.68571289 -7.1328125 2.78125 C-6.40980957 2.24564453 -5.68680664 1.71003906 -4.94189453 1.15820312 C-3 0 -3 0 0 0 Z " fill="#000000" transform="translate(296,815)"/>
<path d="M0 0 C2.26974635 3.40461952 3.40538371 6.82656355 4.625 10.6875 C4.96917969 11.71133789 4.96917969 11.71133789 5.3203125 12.75585938 C7.2195002 18.74169205 7.93298094 24.14617596 5.9375 30.25 C2.51844306 35.10285501 -1.75031698 37.00793526 -7.4375 38 C-12.37679927 38.32029586 -16.23303622 37.28117886 -20 34 C-22.81513591 29.63084397 -24.07805345 25.07518149 -25 20 C-26.13179687 20.3609375 -27.26359375 20.721875 -28.4296875 21.09375 C-29.91141093 21.56264982 -31.39318437 22.03139164 -32.875 22.5 C-33.99455078 22.85771484 -33.99455078 22.85771484 -35.13671875 23.22265625 C-40.7734375 25 -40.7734375 25 -43 25 C-43.99 21.7 -44.98 18.4 -46 15 C-36.67779462 11.01290605 -27.07044332 8.16490775 -17.375 5.25 C-15.68607531 4.73868607 -13.99727215 4.22697052 -12.30859375 3.71484375 C-8.2071156 2.47192798 -4.10403131 1.23445797 0 0 Z M-15 16 C-14.71758359 17.46015291 -14.42373386 18.91809793 -14.125 20.375 C-13.88136719 21.59316406 -13.88136719 21.59316406 -13.6328125 22.8359375 C-13.13341068 25.18673923 -13.13341068 25.18673923 -11 27 C-7.70285207 26.67028521 -6.3773161 26.3773161 -4 24 C-3.93890744 22.07567281 -3.93890744 22.07567281 -4.3125 20 C-4.41175781 19.29875 -4.51101562 18.5975 -4.61328125 17.875 C-4.93258454 15.92039604 -4.93258454 15.92039604 -6 14 C-9.38023517 14 -11.83468937 14.87455622 -15 16 Z " fill="#000000" transform="translate(244,703)"/>
<path d="M0 0 C0.67753232 2.83111718 1.34218727 5.66429376 2 8.5 C2.19078125 9.29148437 2.3815625 10.08296875 2.578125 10.8984375 C3.9419627 16.8408732 5.31168395 22.96241611 2.8125 28.75 C0.31136766 31.85485394 -2.42673352 34.21336676 -6 36 C-10.81143363 36.40288977 -15.39454299 36.61485588 -19.9375 34.875 C-25.27682092 30.02107189 -26.83876046 24.87576046 -28 18 C-29.299375 18.144375 -30.59875 18.28875 -31.9375 18.4375 C-38.96875 19.21875 -38.96875 19.21875 -46 20 C-46.66 16.7 -47.32 13.4 -48 10 C-37.63768114 7.22583589 -27.18859923 4.92969637 -16.6875 2.75 C-16.03504303 2.61358093 -15.38258606 2.47716187 -14.71035767 2.33660889 C-12.83237976 1.9448241 -10.95331615 1.5582547 -9.07421875 1.171875 C-7.97682373 0.9459668 -6.87942871 0.72005859 -5.7487793 0.48730469 C-3 0 -3 0 0 0 Z M-18 14 C-17.71758359 15.46015291 -17.42373386 16.91809793 -17.125 18.375 C-16.88136719 19.59316406 -16.88136719 19.59316406 -16.6328125 20.8359375 C-16.13341068 23.18673923 -16.13341068 23.18673923 -14 25 C-11.5 25.33333333 -11.5 25.33333333 -9 25 C-8.34 24.34 -7.68 23.68 -7 23 C-6.97746557 20.55036823 -6.97746557 20.55036823 -7.375 17.875 C-7.48585938 16.96492187 -7.59671875 16.05484375 -7.7109375 15.1171875 C-7.80632812 14.41851563 -7.90171875 13.71984375 -8 13 C-11.49609808 12.95299364 -14.58505832 13.2194419 -18 14 Z " fill="#000000" transform="translate(237,667)"/>
<path d="M0 0 C6.68533717 1.22846769 13.15624037 2.80407618 19.65625 4.78515625 C20.52519897 5.04630722 21.39414795 5.30745819 22.28942871 5.57652283 C24.10506546 6.1231456 25.92004394 6.67195933 27.734375 7.22290039 C30.5193332 8.06836925 33.3063402 8.90679373 36.09375 9.74414062 C37.86470548 10.27824101 39.63554322 10.81273195 41.40625 11.34765625 C42.23950806 11.59870621 43.07276611 11.84975616 43.93127441 12.1084137 C49.76656611 13.88328305 49.76656611 13.88328305 52 15 C52 15.66 52 16.32 52 17 C36.36553828 25.39513225 20.722663 33.77077367 5 42 C2.92641581 38.88962372 2.70512877 38.00438748 2.6875 34.4375 C2.66236328 33.25994141 2.66236328 33.25994141 2.63671875 32.05859375 C2.75660156 31.37925781 2.87648437 30.69992187 3 30 C3.99 29.34 4.98 28.68 6 28 C6.40315796 25.73496648 6.40315796 25.73496648 6.25 23.1875 C6.22421875 22.29675781 6.1984375 21.40601563 6.171875 20.48828125 C5.99458518 17.92160819 5.66357916 15.48842185 5 13 C4.0409375 12.8453125 4.0409375 12.8453125 3.0625 12.6875 C2.381875 12.460625 1.70125 12.23375 1 12 C-0.34704161 7.95887516 -0.06113241 4.21813605 0 0 Z M16 16 C16.33 18.31 16.66 20.62 17 23 C19.97 21.68 22.94 20.36 26 19 C22.99382731 15.99382731 20.17618402 16.40414684 16 16 Z " fill="#000000" transform="translate(184,628)"/>
<path d="M0 0 C3.20243628 0.34647435 5.01443936 1.58350661 7.3828125 3.6875 C7.99253906 4.22117187 8.60226562 4.75484375 9.23046875 5.3046875 C9.85566406 5.86414063 10.48085938 6.42359375 11.125 7 C12.37610517 8.10586486 13.62864432 9.21011014 14.8828125 10.3125 C15.43340332 10.80363281 15.98399414 11.29476562 16.55126953 11.80078125 C18.00672803 13.09746176 18.00672803 13.09746176 20 14 C18.68775452 17.93673644 17.08089673 20.22719294 14 23 C11.00779732 21.63629701 8.70973471 20.05091917 6.25 17.875 C5.63640625 17.33617187 5.0228125 16.79734375 4.390625 16.2421875 C3.70226562 15.62730469 3.70226562 15.62730469 3 15 C0.9375006 16.81222534 0.9375006 16.81222534 -1 19 C-1 19.99 -1 20.98 -1 22 C0.76401402 23.6877081 0.76401402 23.6877081 3 25.1875 C4.11375 25.98220703 4.11375 25.98220703 5.25 26.79296875 C5.8275 27.19128906 6.405 27.58960938 7 28 C5 31 3 34 1 37 C-3.04420651 35.22054913 -6.46078487 32.60470327 -10 30 C-11.98 32.97 -11.98 32.97 -14 36 C-9.05 39.96 -9.05 39.96 -4 44 C-5.03153759 48.12615036 -6.28404014 49.8459821 -9 53 C-12.86974088 51.66935226 -15.38862293 50.03153533 -18.375 47.25 C-19.14457031 46.54359375 -19.91414063 45.8371875 -20.70703125 45.109375 C-21.46371094 44.41328125 -22.22039062 43.7171875 -23 43 C-25.31872418 40.98224368 -27.65919032 38.99217845 -30 37 C-26.03223862 31.5309235 -21.79277093 26.35645145 -17.40136719 21.2265625 C-13.30770716 16.41963425 -9.3947691 11.4846807 -5.52856445 6.49365234 C-3.76437312 4.22030116 -2.03722502 2.03722502 0 0 Z " fill="#000000" transform="translate(358,888)"/>
<path d="M0 0 C5.09882455 1.5280389 9.65665659 3.71036856 14.375 6.125 C15.11105469 6.49753906 15.84710938 6.87007812 16.60546875 7.25390625 C18.40550358 8.1656122 20.20301402 9.08229932 22 10 C21.31620454 13.95008059 20.21156817 16.63457018 18 20 C13.52761347 18.58192622 9.28853694 16.88695626 5 15 C4.01 16.98 3.02 18.96 2 21 C5.3 22.98 8.6 24.96 12 27 C10.94124926 30.40312738 9.99097846 33.01353231 8 36 C3.87248551 35.39301257 0.6678852 33.96189209 -3 32 C-5.25885324 35.25397508 -5.25885324 35.25397508 -6 39 C-2.04 40.98 1.92 42.96 6 45 C3.75 51.75 3.75 51.75 2 55 C-3.3537465 53.44347945 -8.00150947 51.0182491 -12.875 48.375 C-13.65875 47.95476563 -14.4425 47.53453125 -15.25 47.1015625 C-17.16892057 46.0718978 -19.08477603 45.03652433 -21 44 C-19.13973441 37.95718725 -16.88923401 32.35017291 -14.0234375 26.71875 C-13.65272125 25.97919067 -13.282005 25.23963135 -12.90005493 24.47766113 C-12.12467102 22.93355563 -11.34643484 21.39087929 -10.56542969 19.84960938 C-9.36538116 17.48101483 -8.17418213 15.10812814 -6.984375 12.734375 C-6.22706543 11.22891356 -5.46927077 9.72369603 -4.7109375 8.21875 C-4.3536557 7.50843628 -3.9963739 6.79812256 -3.62826538 6.06628418 C-1.11727353 1.11727353 -1.11727353 1.11727353 0 0 Z " fill="#000000" transform="translate(429,936)"/>
<path d="M0 0 C11.88 1.98 11.88 1.98 24 4 C23.67 7.63 23.34 11.26 23 15 C15.575 14.01 15.575 14.01 8 13 C8 14.98 8 16.96 8 19 C7.67 19.66 7.34 20.32 7 21 C12.94 21.99 12.94 21.99 19 23 C18.67 26.3 18.34 29.6 18 33 C14.04 32.67 10.08 32.34 6 32 C5.34 34.64 4.68 37.28 4 40 C4.99580078 40.09087891 4.99580078 40.09087891 6.01171875 40.18359375 C6.89472656 40.26738281 7.77773438 40.35117187 8.6875 40.4375 C9.55761719 40.51871094 10.42773438 40.59992187 11.32421875 40.68359375 C13.90220641 40.98843609 16.45446295 41.49089259 19 42 C18.34 45.63 17.68 49.26 17 53 C8.75 51.68 0.5 50.36 -8 49 C-6.84929765 35.19157182 -6.84929765 35.19157182 -5.625 28.49609375 C-5.49561035 27.76552261 -5.3662207 27.03495148 -5.23291016 26.28224182 C-4.96318945 24.76541873 -4.69089308 23.24905137 -4.41601562 21.7331543 C-3.9952053 19.41104193 -3.58292727 17.08752956 -3.171875 14.76367188 C-2.90673727 13.27855876 -2.6411299 11.79352939 -2.375 10.30859375 C-2.25205566 9.61801376 -2.12911133 8.92743378 -2.00244141 8.21592712 C-1.48757815 5.38757466 -0.9108162 2.73244859 0 0 Z " fill="#000000" transform="translate(530,972)"/>
<path d="M0 0 C4.94626149 2.96145592 9.77665645 6.77935689 11.5625 12.375 C11.583125 13.055625 11.60375 13.73625 11.625 14.4375 C10.5053014 15.44343243 9.3790588 16.4420849 8.25 17.4375 C7.62351562 17.994375 6.99703125 18.55125 6.3515625 19.125 C4.625 20.4375 4.625 20.4375 2.625 20.4375 C2.25375 19.53 1.8825 18.6225 1.5 17.6875 C-0.74142947 13.80235558 -2.33715971 12.38164532 -6.375 10.4375 C-10.62778803 9.78038518 -14.09391831 9.64914204 -17.8125 11.9375 C-18.328125 12.4325 -18.84375 12.9275 -19.375 13.4375 C-20.035 13.4375 -20.695 13.4375 -21.375 13.4375 C-24.36765093 20.78388902 -24.36765093 20.78388902 -23.375 28.4375 C-20.27665655 32.95222902 -17.41616305 35.3272457 -12.375 37.4375 C-13.90208963 40.87345166 -15.97427045 43.55662454 -18.375 46.4375 C-24.26327066 45.62850281 -27.42194717 42.70481226 -31.375 38.4375 C-35.27593127 33.04306933 -36.63155569 27.04637458 -36.375 20.4375 C-35.10878224 13.57975425 -32.01116442 7.18419171 -26.37890625 2.9296875 C-18.59151538 -2.07138921 -8.77287437 -4.03310924 0 0 Z " fill="#000000" transform="translate(342.375,871.5625)"/>
<path d="M0 0 C2.82414288 2.17987014 5.44114131 4.51600153 8 7 C6.37159701 10.40219909 4.51714616 13.16821057 2 16 C1.34 16 0.68 16 0 16 C-1.66666667 14.33333333 -3.33333333 12.66666667 -5 11 C-8.54216451 8.52048485 -11.75718373 8.56108797 -16 9 C-20.86987836 11.43493918 -23.21711438 13.84944153 -25 19 C-25.81642601 23.53570004 -25.45134732 26.21766464 -23.125 30.25 C-19.56131367 34.03060637 -14.80666565 35.33368924 -10 37 C-11.98 41.95 -11.98 41.95 -14 47 C-22.47250739 45.67617072 -27.55819987 42.71352119 -33.375 36.4375 C-37.68116613 29.9782508 -37.84503089 23.57006842 -37 16 C-34.63851741 8.28301225 -30.1710781 2.78117288 -23.08984375 -1.02734375 C-15.47370373 -4.31303437 -7.2527924 -4.11606614 0 0 Z " fill="#000000" transform="translate(416,927)"/>
<path d="M0 0 C3.02856579 2.79359085 4.74073944 5.39705016 6.03515625 9.3125 C5.96958632 14.32495714 2.21069591 17.86378525 -0.92578125 21.49609375 C-3.21264548 23.71478793 -3.21264548 23.71478793 -3 26 C-1.95199219 26.10957031 -0.90398437 26.21914063 0.17578125 26.33203125 C1.55476651 26.49150574 2.93366871 26.65169966 4.3125 26.8125 C5.00279297 26.88275391 5.69308594 26.95300781 6.40429688 27.02539062 C9.22624761 27.36620593 11.4997116 27.65813626 13.875 29.28125 C15.2333887 31.35656607 15.96559818 33.31553687 16.6875 35.6875 C16.93886719 36.49574219 17.19023437 37.30398438 17.44921875 38.13671875 C17.63097656 38.75160156 17.81273437 39.36648438 18 40 C12.45811281 39.67921212 7.04456221 39.30344629 1.640625 37.984375 C-11.68410872 34.91331976 -20.05653487 37.64709301 -32 44 C-35.28330144 41.07651242 -35.95866933 38.24542505 -37 34 C-36.44650879 33.80591553 -35.89301758 33.61183105 -35.32275391 33.41186523 C-22.27841926 28.66785383 -14.52771376 24.16442962 -7.99072266 11.80078125 C-6.49071839 9.07430725 -4.69164917 6.58502666 -2.875 4.0625 C-2.31554687 3.26972656 -1.75609375 2.47695313 -1.1796875 1.66015625 C-0.79039062 1.11230469 -0.40109375 0.56445312 0 0 Z " fill="#000000" transform="translate(253,734)"/>
<path d="M0 0 C11.47751454 2.57130801 22.75092939 5.56473939 34 9 C33.745504 10.48206495 33.47088238 11.96068615 33.1875 13.4375 C33.03667969 14.26121094 32.88585937 15.08492187 32.73046875 15.93359375 C32.48941406 16.61550781 32.24835937 17.29742188 32 18 C28.44757118 19.18414294 27.30169438 18.69535532 23.8125 17.5625 C22.46091797 17.13130859 22.46091797 17.13130859 21.08203125 16.69140625 C20.39496094 16.46324219 19.70789063 16.23507812 19 16 C18.86078125 17.55074219 18.86078125 17.55074219 18.71875 19.1328125 C17.92020363 25.51274808 16.14336676 31.67112549 14.5 37.875 C14.17902344 39.10992188 13.85804688 40.34484375 13.52734375 41.6171875 C11.14388321 50.71223358 11.14388321 50.71223358 10 53 C6.7 52.34 3.4 51.68 0 51 C0.65514203 42.93031407 2.93387015 35.27666743 5.0625 27.5 C5.44385293 26.09127935 5.82471657 24.68242615 6.20507812 23.2734375 C7.13107795 19.84741051 8.06370234 16.42322897 9 13 C5.37 12.34 1.74 11.68 -2 11 C-1.34 7.37 -0.68 3.74 0 0 Z " fill="#000000" transform="translate(493,963)"/>
<path d="M0 0 C4 6.625 4 6.625 4 10 C1.81253253 11.64108107 -0.31100164 13.05038015 -2.6484375 14.44921875 C-3.3349942 14.86669876 -4.0215509 15.28417877 -4.72891235 15.71430969 C-6.18993501 16.59673581 -7.65461318 17.47313288 -9.12255859 18.34399414 C-11.34567333 19.67000763 -13.54548838 21.02962733 -15.74609375 22.39257812 C-28.54825552 30.14525454 -28.54825552 30.14525454 -36.07958984 29.50439453 C-41.06912992 28.19389494 -43.14464197 25.40326018 -45.6953125 21.21875 C-47.19753464 18.50776306 -48.62771064 15.77864265 -50 13 C-48.71186658 12.16121545 -47.41936744 11.32913217 -46.125 10.5 C-45.40570313 10.0359375 -44.68640625 9.571875 -43.9453125 9.09375 C-42 8 -42 8 -40 8 C-38.4921875 9.96875 -38.4921875 9.96875 -36.875 12.5 C-36.33617187 13.3353125 -35.79734375 14.170625 -35.2421875 15.03125 C-34.83226562 15.6809375 -34.42234375 16.330625 -34 17 C-30.05658733 16.41608518 -27.28026979 15.21548343 -23.875 13.1640625 C-22.92109375 12.59429688 -21.9671875 12.02453125 -20.984375 11.4375 C-19.99953125 10.839375 -19.0146875 10.24125 -18 9.625 C-17.01515625 9.03460937 -16.0303125 8.44421875 -15.015625 7.8359375 C-11.42942979 5.68422037 -7.84573457 3.53149515 -4.3046875 1.30615234 C-2 0 -2 0 0 0 Z " fill="#000000" transform="translate(287,800)"/>
<path d="M0 0 C2.31 1.98 4.62 3.96 7 6 C5.83809649 10.64761402 4.65120266 11.58584016 1.125 14.6875 C0.63249756 15.12392822 0.13999512 15.56035645 -0.36743164 16.01000977 C-4.52824868 19.66784908 -8.83134848 23.14609863 -13.1484375 26.6171875 C-16.93908223 29.78471255 -20.54458256 33.1358595 -24.11694336 36.54663086 C-27.78796441 40 -27.78796441 40 -30 40 C-31.5078125 38.5390625 -31.5078125 38.5390625 -33.125 36.625 C-33.66382813 35.99851562 -34.20265625 35.37203125 -34.7578125 34.7265625 C-36 33 -36 33 -36 31 C-34.48848454 29.64902626 -32.91186687 28.37072655 -31.3125 27.125 C-26.86704383 23.57548301 -22.64494293 19.89452317 -18.5 16 C-13.51025189 11.32327567 -8.38394942 6.92498833 -3.046875 2.64453125 C-1.12569477 1.16181243 -1.12569477 1.16181243 0 0 Z " fill="#000000" transform="translate(320,848)"/>
<path d="M0 0 C0.66 0.33 1.32 0.66 2 1 C-6.91 9.91 -15.82 18.82 -25 28 C-25.66 27.67 -26.32 27.34 -27 27 C-8.75294118 6.77647059 -8.75294118 6.77647059 0 0 Z " fill="#64C62B" transform="translate(407,175)"/>
<path d="M0 0 C1.46067199 0.45082469 2.91848032 0.91093537 4.375 1.375 C5.18710938 1.63023437 5.99921875 1.88546875 6.8359375 2.1484375 C9 3 9 3 11 5 C10.34 5 9.68 5 9 5 C8.67 5.66 8.34 6.32 8 7 C6.66382648 6.02471263 5.3311249 5.04466681 4 4.0625 C3.2575 3.51722656 2.515 2.97195312 1.75 2.41015625 C1.1725 1.94480469 0.595 1.47945312 0 1 C0 0.67 0 0.34 0 0 Z " fill="#69C62D" transform="translate(156,197)"/>
</svg>
